<?xml version="1.0" encoding="UTF-8"?>
<!-- Created with Inkscape (http://www.inkscape.org/) -->
<svg width="59.8726mm" height="9.630834mm" version="1.1" viewBox="0 0 59.8726 9.630834" xmlns="http://www.w3.org/2000/svg" xmlns:xlink="http://www.w3.org/1999/xlink">
 <defs>
  <linearGradient id="linearGradient27">
   <stop stop-color="#ab00fc" offset="0"/>
   <stop stop-color="#ff5c49" offset="1"/>
  </linearGradient>
  <linearGradient id="linearGradient28" x1="223.3786" x2="276.2986" y1="414.2403" y2="283.9188" gradientUnits="userSpaceOnUse" xlink:href="#linearGradient27"/>
 </defs>
 <g transform="translate(-27.69753 -87.71819)">
  <g transform="scale(.2645833)" style="white-space:pre" aria-label="contrapshell">
   <g fill="#333">
    <path d="m114.0436 361.1333q-2.84 0-4.96-1.04-2.08-1.08-3.24-3-1.16-1.96-1.16-4.6v-5.52q0-2.64 1.16-4.56 1.16-1.96 3.24-3 2.12-1.08 4.96-1.08 4.12 0 6.6 2.16 2.52 2.12 2.64 5.8h-4.92q-0.12-1.72-1.32-2.64-1.16-0.96-3-0.96-2.04 0-3.2 1.12-1.16 1.08-1.16 3.12v5.56q0 2.04 1.16 3.16t3.2 1.12q1.88 0 3.04-0.92 1.16-0.96 1.28-2.68h4.92q-0.12 3.68-2.64 5.84-2.48 2.12-6.6 2.12zm19.22002-0.04q-4.24 0-6.72-2.36-2.48-2.4-2.48-6.44v-5.12q0-4.08 2.48-6.44t6.72-2.36 6.72 2.36 2.48 6.44v5.12q0 4.04-2.48 6.44-2.48 2.36-6.72 2.36zm0-4.36q2 0 3.08-1.08 1.12-1.12 1.12-3.2v-5.44q0-2.08-1.12-3.16-1.08-1.12-3.08-1.12t-3.12 1.12q-1.08 1.08-1.08 3.16v5.44q0 2.08 1.08 3.2 1.12 1.08 3.12 1.08z"/>
    <path d="m143.9236 360.7333v-22h4.88v4.12q0.4-2.08 1.96-3.28 1.56-1.24 3.96-1.24 3.24 0 5.16 2.16 1.96 2.16 1.96 5.8v14.44h-5v-13.84q0-2.04-1.08-3.12-1.04-1.12-2.84-1.12-1.88 0-2.96 1.12-1.04 1.12-1.04 3.2v13.76z"/>
    <path d="m175.5836 360.7333q-3.08 0-4.92-1.76-1.8-1.8-1.8-4.84v-10.88h-6.08v-4.52h6.08v-6.2h5.04v6.2h8.76v4.52h-8.76v10.76q0 0.96 0.52 1.6 0.56 0.6 1.52 0.6h6.52v4.52z"/>
    <path d="m184.4136 360.7333v-22h4.88v4.28q0.4-2.16 1.96-3.4 1.6-1.28 4.12-1.28 3.36 0 5.24 2.16t1.88 6.04v2.08h-5v-1.84q0-2-1.04-3.04-1.04-1.08-2.96-1.08-2 0-3.04 1.2t-1.04 3.4v13.48z"/>
    <path d="m210.3437 361.1333q-3.36 0-5.32-1.88-1.92-1.92-1.92-5 0-3.2 2.2-5.08 2.2-1.92 6.04-1.92h5.36v-1.56q0-3.32-3.88-3.32-1.76 0-2.8 0.68t-1.16 1.92h-4.8q0.16-2.96 2.48-4.8 2.36-1.84 6.32-1.84 4.2 0 6.52 1.96t2.32 5.52v14.92h-4.88v-4.12q-0.28 2.12-2 3.32t-4.48 1.2zm1.6-4.08q2.2 0 3.48-1.08t1.28-2.88v-2.6h-5.12q-1.64 0-2.6 0.92t-0.96 2.36q0 1.48 1 2.4 1.04 0.88 2.92 0.88z"/>
    <path d="m222.8137 367.9333v-29.2h4.88v4.04q0.6-2.08 2.16-3.24 1.56-1.2 3.88-1.2 2.12 0 3.72 1.04 1.64 1.04 2.52 2.96 0.92 1.88 0.92 4.4v5.96q0 3.8-1.96 6.12t-5.2 2.32q-2.32 0-3.92-1.2-1.56-1.2-2.16-3.36l0.16 5.2v6.16zm9.04-11.12q1.92 0 2.96-1.04 1.08-1.04 1.08-3.2v-5.68q0-2.16-1.08-3.2-1.04-1.04-2.96-1.04t-3 1.16q-1.04 1.16-1.04 3.28v5.28q0 2.12 1.04 3.28 1.08 1.16 3 1.16z"/>
   </g>
   <g fill="url(#linearGradient28)">
    <path d="m250.0837 361.0933q-3.92 0-6.2-1.76-2.28-1.8-2.28-4.84h4.92q0 1.28 0.92 1.96 0.96 0.68 2.64 0.68h1.76q1.8 0 2.76-0.68 1-0.68 1-1.96 0-1.2-0.68-1.76-0.68-0.6-2.08-0.8l-5.48-0.72q-2.64-0.36-4.08-2.04-1.4-1.68-1.4-4.36 0-3.12 2.08-4.76 2.08-1.68 6-1.68h1.84q3.68 0 5.92 1.68t2.32 4.48h-4.96q-0.04-1.04-0.92-1.64-0.88-0.64-2.36-0.64h-1.84q-1.6 0-2.44 0.68-0.84 0.64-0.84 1.76 0 1 0.6 1.48 0.64 0.48 1.84 0.6l5.16 0.72q3.04 0.36 4.56 2.16 1.56 1.76 1.56 4.76 0 3.2-2.2 4.96-2.16 1.72-6.36 1.72z"/>
    <path d="m261.3537 360.7333v-29.2h5v7.2l-0.12 4.08q0.4-2.08 1.96-3.28t3.96-1.2q3.24 0 5.16 2.16 1.96 2.16 1.96 5.8v14.44h-5v-13.84q0-2.04-1.08-3.12-1.04-1.12-2.84-1.12-1.88 0-2.96 1.12-1.04 1.12-1.04 3.2v13.76z"/>
    <path d="m289.8937 361.1333q-2.8 0-4.88-1.08t-3.24-3.04q-1.12-2-1.12-4.68v-5.2q0-2.68 1.12-4.64 1.16-2 3.24-3.08t4.88-1.08q2.76 0 4.8 1.08 2.08 1.08 3.2 3.04 1.16 1.92 1.16 4.52v4h-13.6v1.52q0 2.24 1.16 3.4 1.16 1.12 3.28 1.12 1.56 0 2.64-0.52 1.12-0.56 1.32-1.6h4.96q-0.52 2.84-2.96 4.56-2.44 1.68-5.96 1.68zm-4.44-14.16v0.76l8.8-0.04v-0.76q0-2.28-1.12-3.52t-3.24-1.24q-2.2 0-3.32 1.28-1.12 1.24-1.12 3.52z"/>
    <path d="m309.0138 360.7333q-3.28 0-5.28-1.96-1.96-1.96-1.96-5.16v-17.56h-7.24v-4.52h12.24v21.96q0 1.24 0.68 2 0.72 0.72 1.92 0.72h6.44v4.52zm15.16 0q-3.28 0-5.28-1.96-1.96-1.96-1.96-5.16v-17.56h-7.24v-4.52h12.24v21.96q0 1.24 0.68 2 0.72 0.72 1.92 0.72h6.44v4.52z"/>
   </g>
  </g>
 </g>
</svg>
