<?xml version="1.0" encoding="UTF-8"?>
<!-- Uploaded to: SVG Repo, www.svgrepo.com, Generator: SVG Repo Mixer Tools -->
<svg width="800px" height="800px" fill="#000000" version="1.1" viewBox="0 0 32 32" xml:space="preserve" xmlns="http://www.w3.org/2000/svg">

<g fill="#fff">

<g fill="#fff">

<path d="m13.8 6.4c-1.4-1.1-2.9-1.9-4.6-2.5 1.5 0.9 3 1.7 4.2 2.9-0.1 1.1-1.5 1.8-3.1 1.7-0.1-0.1 0.1-0.1 0.1-0.3-0.4-0.1-0.9 0-1.2-0.2 0-0.1 0.2-0.1 0.1-0.2-0.3-0.2-0.7-0.3-1-0.5 0-0.1 0.2-0.1 0.3-0.2-0.3-0.2-0.7-0.3-1-0.6 0.1-0.1 0.2 0 0.3-0.2-0.3-0.2-0.6-0.4-0.8-0.7 0.1-0.1 0.2 0 0.3-0.1-0.1-0.3-0.5-0.5-0.6-0.8 0.2 0 0.3 0.1 0.5-0.1-0.2-0.3-0.6-0.4-0.7-0.8 0.1-0.1 0.3 0 0.4-0.1 0-0.3-0.2-0.5-0.3-0.8 0.3-0.1 0.7 0 1-0.1 0-0.1-0.1-0.2-0.1-0.3 0.4-0.2 0.8 0 1.2 0.1 0.1-0.2-0.1-0.2 0-0.4 0.3 0 0.6 0.2 1 0.2 0.1-0.2-0.2-0.2-0.2-0.4 0.4 0 0.7 0.2 1 0.4 0.1-0.1 0-0.2 0.1-0.4 0.3 0.1 0.5 0.3 0.8 0.5 0.2 0 0.1-0.2 0.2-0.3 0.3 0.1 0.5 0.4 0.7 0.5 0.2 0 0.1-0.2 0.2-0.3 0.3 0.2 0.5 0.5 0.7 0.7 0.2 0 0.1-0.2 0.3-0.2 0.6 0.7 1.2 1.5 1.1 2.5 0 0.5-0.4 0.8-0.9 1z"/>

<path d="m23.5 7.1c0.1 0.1 0.2 0.1 0.3 0.1-0.3 0.3-0.7 0.3-1.1 0.5 0 0.1 0.1 0.1 0.1 0.2-0.3 0.2-0.8 0.1-1.1 0.2-0.1 0.1 0.1 0.2 0 0.3-0.4 0.1-0.8 0-1.3-0.1-0.9-0.2-1.6-0.6-1.9-1.5 1.2-1.3 2.7-2.1 4.2-2.9-1.7 0.6-3.2 1.4-4.6 2.4-0.6-0.2-0.9-0.7-0.9-1.3 0-0.7 0.6-1.8 1.2-2.3l0.2 0.3c0.3-0.2 0.5-0.6 0.8-0.7 0.1 0.1 0 0.3 0.2 0.3 0.2-0.1 0.4-0.4 0.7-0.5 0.1 0.1 0 0.2 0.2 0.3 0.3 0 0.5-0.3 0.9-0.4 0 0.1-0.1 0.2 0 0.4 0.3-0.2 0.6-0.4 1-0.4 0 0.1-0.2 0.2-0.1 0.4 0.3 0 0.6-0.2 1-0.2 0 0.1-0.1 0.2 0 0.4 0.4-0.1 0.8-0.2 1.2-0.1 0 0.1-0.1 0.2-0.1 0.3 0.3 0.1 0.7 0 1 0.1-0.1 0.3-0.4 0.5-0.4 0.8 0.1 0.1 0.3 0 0.4 0.1-0.1 0.4-0.5 0.5-0.6 0.8 0.1 0.2 0.3 0 0.4 0.1-0.1 0.3-0.5 0.5-0.7 0.8 0.1 0.2 0.2 0.1 0.3 0.1-0.2 0.3-0.5 0.4-0.7 0.7 0.1 0.1 0.2 0.1 0.3 0.2-0.2 0.3-0.6 0.4-0.9 0.6z"/>





<path d="m15.4 16c0 1.8-1.4 3.6-3.2 4s-3.4-0.9-3.5-2.7 1.2-3.6 2.9-4c2.1-0.6 3.8 0.7 3.8 2.7z"/>

<path d="m23.4 16.9c0 2.1-1.8 3.4-3.8 2.8-1.8-0.6-3.1-2.5-2.8-4.4 0.3-1.8 2.1-2.9 3.9-2.2 1.6 0.6 2.7 2.2 2.7 3.8z"/>

<path d="m16.1 19.4c1 0 2 0.4 2.7 1.2 1.2 1.3 1.1 3.2-0.2 4.3s-3.4 1.2-4.7 0.1c-1-0.8-1.4-1.8-1.2-3.1 0.3-1.3 1.2-2 2.4-2.4 0.3 0 0.6-0.1 1-0.1z"/>

<path d="m19.8 25.3c0.1-1 0.5-2 1.3-2.9 0.5-0.5 1-1 1.5-1.4 0.3-0.2 0.6-0.3 0.9-0.4 0.6-0.1 1.1 0.1 1.3 0.7 0.4 1 0.5 2 0 3-0.6 1.4-1.7 2.3-3.2 2.6h-0.5c-0.9 0.1-1.3-0.3-1.3-1.6z"/>

<path d="m6.9 22.7v-0.3c0.1-1.1 0.7-1.5 1.8-1.2 1.7 0.5 3.3 2.5 3.4 4.3 0 1.1-0.5 1.6-1.6 1.4-1.5-0.2-2.5-1-3.1-2.3-0.4-0.6-0.5-1.2-0.5-1.9z"/>

<path d="m16.2 12.8c-0.8 0-1.6-0.1-2.3-0.5-1.3-0.7-1.3-1.6-0.2-2.4 1.5-1.1 3.5-1 4.9 0.2l0.3 0.3c0.5 0.6 0.4 1.2-0.2 1.7-0.5 0.4-1.1 0.5-1.7 0.6-0.3 0.1-0.6 0.1-0.8 0.1z"/>

<path d="m16 30c-1.2 0-2.2-0.5-3.1-1.4-0.4-0.4-0.4-0.8 0.1-1.1 0.7-0.4 1.4-0.6 2.2-0.7 1-0.1 2-0.1 3 0.2 0.2 0.1 0.5 0.2 0.7 0.3 0.6 0.3 0.7 0.6 0.2 1.2l-0.1 0.1c-0.7 0.9-1.7 1.4-3 1.4z"/>

<path d="m7.8 16.8c0 1.1-0.2 2.1-0.6 3.1-0.1 0.3-0.2 0.5-0.4 0.7-0.3 0.4-0.5 0.4-0.8 0.1-1.4-1.4-1.2-4.1 0.5-5.3 0.6-0.5 1-0.4 1.2 0.4 0 0.3 0.1 0.7 0.1 1z"/>

<path d="m26.9 18.3c0 0.8-0.3 1.7-0.9 2.4-0.3 0.3-0.5 0.3-0.8 0-0.3-0.4-0.5-0.9-0.6-1.4-0.3-1-0.4-2.1-0.3-3.2 0-0.2 0.1-0.5 0.2-0.7 0.2-0.4 0.4-0.5 0.8-0.2 1 0.6 1.6 1.7 1.6 3.1z"/>

<path d="m7.5 13.9c-0.1-1.3 0.3-2.5 1.4-3.3s2.3-1 3.6-0.8c0 0.3-0.2 0.5-0.3 0.7-0.7 0.9-1.6 1.6-2.4 2.3-0.5 0.4-1 0.7-1.5 1-0.4 0.1-0.6 0.3-0.8 0.1z"/>

<path d="m24.6 14c-0.2 0.1-0.5 0-0.7-0.2-0.7-0.4-1.4-0.9-2-1.4-0.7-0.6-1.3-1.2-1.9-1.8-0.1-0.2-0.3-0.4-0.3-0.6 0.6-0.3 2.6-0.2 3.6 0.7 1 0.8 1.6 2.4 1.3 3.3z"/>

</g>

</g>

</svg>
